<mxfile host="app.diagrams.net" modified="2021-08-21T00:31:45.619Z" agent="5.0 (Windows NT 10.0; Win64; x64) AppleWebKit/537.36 (KHTML, like Gecko) Chrome/92.0.4515.159 Safari/537.36" etag="irzAA7lQrA_f9pYwOpJ8" version="14.9.6" type="github">
  <diagram id="735JSAVP67oz-fzIZns3" name="Page-1">
    <mxGraphModel dx="868" dy="1651" grid="1" gridSize="10" guides="1" tooltips="1" connect="1" arrows="1" fold="1" page="1" pageScale="1" pageWidth="827" pageHeight="1169" math="0" shadow="0">
      <root>
        <mxCell id="0" />
        <mxCell id="1" parent="0" />
        <mxCell id="TnC0XK69cuh4wK1BemMV-1" value="Clientes" style="rounded=0;whiteSpace=wrap;html=1;" vertex="1" parent="1">
          <mxGeometry x="70" y="140" width="110" height="60" as="geometry" />
        </mxCell>
        <mxCell id="TnC0XK69cuh4wK1BemMV-10" value="" style="endArrow=none;html=1;fontColor=#FFFFFF;entryX=0;entryY=1;entryDx=0;entryDy=0;" edge="1" parent="1" target="TnC0XK69cuh4wK1BemMV-1">
          <mxGeometry width="50" height="50" relative="1" as="geometry">
            <mxPoint x="70" y="330" as="sourcePoint" />
            <mxPoint x="440" y="230" as="targetPoint" />
          </mxGeometry>
        </mxCell>
        <mxCell id="TnC0XK69cuh4wK1BemMV-11" value="" style="endArrow=none;html=1;fontColor=#FFFFFF;entryX=0;entryY=0.5;entryDx=0;entryDy=0;" edge="1" parent="1" target="TnC0XK69cuh4wK1BemMV-12">
          <mxGeometry width="50" height="50" relative="1" as="geometry">
            <mxPoint x="70" y="235" as="sourcePoint" />
            <mxPoint x="110" y="250" as="targetPoint" />
            <Array as="points" />
          </mxGeometry>
        </mxCell>
        <mxCell id="TnC0XK69cuh4wK1BemMV-12" value="" style="ellipse;whiteSpace=wrap;html=1;aspect=fixed;fontColor=#FFFFFF;fillColor=#000000;" vertex="1" parent="1">
          <mxGeometry x="140" y="220" width="30" height="30" as="geometry" />
        </mxCell>
        <mxCell id="TnC0XK69cuh4wK1BemMV-13" value="" style="ellipse;whiteSpace=wrap;html=1;aspect=fixed;fontColor=#FFFFFF;fillColor=#FFFFFF;" vertex="1" parent="1">
          <mxGeometry x="130" y="265" width="10" height="10" as="geometry" />
        </mxCell>
        <mxCell id="TnC0XK69cuh4wK1BemMV-14" value="" style="endArrow=none;html=1;fontColor=#FFFFFF;entryX=0;entryY=0.5;entryDx=0;entryDy=0;" edge="1" parent="1" target="TnC0XK69cuh4wK1BemMV-13">
          <mxGeometry width="50" height="50" relative="1" as="geometry">
            <mxPoint x="70" y="270" as="sourcePoint" />
            <mxPoint x="440" y="230" as="targetPoint" />
          </mxGeometry>
        </mxCell>
        <mxCell id="TnC0XK69cuh4wK1BemMV-15" value="" style="ellipse;whiteSpace=wrap;html=1;aspect=fixed;fontColor=#FFFFFF;fillColor=#FFFFFF;" vertex="1" parent="1">
          <mxGeometry x="130" y="295" width="10" height="10" as="geometry" />
        </mxCell>
        <mxCell id="TnC0XK69cuh4wK1BemMV-16" value="" style="endArrow=none;html=1;fontColor=#FFFFFF;entryX=0;entryY=0.5;entryDx=0;entryDy=0;" edge="1" parent="1" target="TnC0XK69cuh4wK1BemMV-15">
          <mxGeometry width="50" height="50" relative="1" as="geometry">
            <mxPoint x="70" y="300" as="sourcePoint" />
            <mxPoint x="450" y="240" as="targetPoint" />
            <Array as="points">
              <mxPoint x="120" y="300" />
            </Array>
          </mxGeometry>
        </mxCell>
        <mxCell id="TnC0XK69cuh4wK1BemMV-17" value="" style="ellipse;whiteSpace=wrap;html=1;aspect=fixed;fontColor=#FFFFFF;fillColor=#FFFFFF;" vertex="1" parent="1">
          <mxGeometry x="130" y="325" width="10" height="10" as="geometry" />
        </mxCell>
        <mxCell id="TnC0XK69cuh4wK1BemMV-18" value="" style="endArrow=none;html=1;fontColor=#FFFFFF;entryX=0;entryY=0.5;entryDx=0;entryDy=0;" edge="1" parent="1" target="TnC0XK69cuh4wK1BemMV-17">
          <mxGeometry width="50" height="50" relative="1" as="geometry">
            <mxPoint x="70" y="330" as="sourcePoint" />
            <mxPoint x="460" y="250" as="targetPoint" />
            <Array as="points">
              <mxPoint x="120" y="330" />
            </Array>
          </mxGeometry>
        </mxCell>
        <mxCell id="TnC0XK69cuh4wK1BemMV-19" value="Id" style="text;html=1;strokeColor=none;fillColor=none;align=center;verticalAlign=middle;whiteSpace=wrap;rounded=0;fontColor=#FFFFFF;" vertex="1" parent="1">
          <mxGeometry x="135" y="225" width="40" height="20" as="geometry" />
        </mxCell>
        <mxCell id="TnC0XK69cuh4wK1BemMV-20" value="Nombre y Apellido" style="text;html=1;strokeColor=none;fillColor=none;align=center;verticalAlign=middle;whiteSpace=wrap;rounded=0;" vertex="1" parent="1">
          <mxGeometry x="135" y="260" width="110" height="20" as="geometry" />
        </mxCell>
        <mxCell id="TnC0XK69cuh4wK1BemMV-21" value="Datos de contacto" style="text;html=1;strokeColor=none;fillColor=none;align=center;verticalAlign=middle;whiteSpace=wrap;rounded=0;fontColor=#000000;" vertex="1" parent="1">
          <mxGeometry x="120" y="290" width="140" height="20" as="geometry" />
        </mxCell>
        <mxCell id="TnC0XK69cuh4wK1BemMV-22" value="Medio/s de pago" style="text;html=1;strokeColor=none;fillColor=none;align=center;verticalAlign=middle;whiteSpace=wrap;rounded=0;fontColor=#000000;" vertex="1" parent="1">
          <mxGeometry x="110" y="320" width="150" height="20" as="geometry" />
        </mxCell>
        <mxCell id="TnC0XK69cuh4wK1BemMV-23" value="Producto" style="rounded=0;whiteSpace=wrap;html=1;fontColor=#000000;fillColor=#FFFFFF;" vertex="1" parent="1">
          <mxGeometry x="490" y="140" width="120" height="60" as="geometry" />
        </mxCell>
        <mxCell id="TnC0XK69cuh4wK1BemMV-31" value="Vende" style="rhombus;whiteSpace=wrap;html=1;fontColor=#000000;fillColor=#FFFFFF;" vertex="1" parent="1">
          <mxGeometry x="290" y="130" width="80" height="80" as="geometry" />
        </mxCell>
        <mxCell id="TnC0XK69cuh4wK1BemMV-32" value="" style="endArrow=none;html=1;fontColor=#000000;exitX=1;exitY=0.5;exitDx=0;exitDy=0;entryX=0;entryY=0.5;entryDx=0;entryDy=0;" edge="1" parent="1" source="TnC0XK69cuh4wK1BemMV-1" target="TnC0XK69cuh4wK1BemMV-31">
          <mxGeometry width="50" height="50" relative="1" as="geometry">
            <mxPoint x="180" y="170" as="sourcePoint" />
            <mxPoint x="490" y="170" as="targetPoint" />
          </mxGeometry>
        </mxCell>
        <mxCell id="TnC0XK69cuh4wK1BemMV-33" value="1" style="text;html=1;strokeColor=none;fillColor=none;align=center;verticalAlign=middle;whiteSpace=wrap;rounded=0;fontColor=#000000;" vertex="1" parent="1">
          <mxGeometry x="170" y="150" width="40" height="20" as="geometry" />
        </mxCell>
        <mxCell id="TnC0XK69cuh4wK1BemMV-34" value="N" style="text;html=1;strokeColor=none;fillColor=none;align=center;verticalAlign=middle;whiteSpace=wrap;rounded=0;fontColor=#000000;" vertex="1" parent="1">
          <mxGeometry x="460" y="150" width="40" height="20" as="geometry" />
        </mxCell>
        <mxCell id="TnC0XK69cuh4wK1BemMV-37" value="Categorias" style="whiteSpace=wrap;html=1;rounded=0;fillColor=#FFFFFF;" vertex="1" parent="1">
          <mxGeometry x="490" y="480" width="120" height="60" as="geometry" />
        </mxCell>
        <mxCell id="TnC0XK69cuh4wK1BemMV-40" value="1" style="text;html=1;strokeColor=none;fillColor=none;align=center;verticalAlign=middle;whiteSpace=wrap;rounded=0;fontColor=#000000;" vertex="1" parent="1">
          <mxGeometry x="540" y="200" width="40" height="20" as="geometry" />
        </mxCell>
        <mxCell id="TnC0XK69cuh4wK1BemMV-41" value="1" style="text;html=1;strokeColor=none;fillColor=none;align=center;verticalAlign=middle;whiteSpace=wrap;rounded=0;fontColor=#000000;" vertex="1" parent="1">
          <mxGeometry x="540" y="460" width="40" height="20" as="geometry" />
        </mxCell>
        <mxCell id="TnC0XK69cuh4wK1BemMV-47" value="" style="endArrow=none;html=1;fontColor=#000000;exitX=0.5;exitY=1;exitDx=0;exitDy=0;" edge="1" parent="1" source="TnC0XK69cuh4wK1BemMV-37">
          <mxGeometry width="50" height="50" relative="1" as="geometry">
            <mxPoint x="390" y="450" as="sourcePoint" />
            <mxPoint x="550" y="650" as="targetPoint" />
          </mxGeometry>
        </mxCell>
        <mxCell id="TnC0XK69cuh4wK1BemMV-52" value="" style="ellipse;whiteSpace=wrap;html=1;aspect=fixed;fontColor=#000000;fillColor=#000000;" vertex="1" parent="1">
          <mxGeometry x="600" y="560" width="30" height="30" as="geometry" />
        </mxCell>
        <mxCell id="TnC0XK69cuh4wK1BemMV-53" value="Id" style="text;html=1;strokeColor=none;fillColor=none;align=center;verticalAlign=middle;whiteSpace=wrap;rounded=0;fontColor=#FFFFFF;" vertex="1" parent="1">
          <mxGeometry x="595" y="565" width="40" height="20" as="geometry" />
        </mxCell>
        <mxCell id="TnC0XK69cuh4wK1BemMV-54" value="" style="endArrow=none;html=1;fontColor=#FFFFFF;" edge="1" parent="1">
          <mxGeometry width="50" height="50" relative="1" as="geometry">
            <mxPoint x="550" y="575" as="sourcePoint" />
            <mxPoint x="600" y="575" as="targetPoint" />
          </mxGeometry>
        </mxCell>
        <mxCell id="TnC0XK69cuh4wK1BemMV-55" value="" style="ellipse;whiteSpace=wrap;html=1;aspect=fixed;fontColor=#FFFFFF;fillColor=#FFFFFF;" vertex="1" parent="1">
          <mxGeometry x="595" y="610" width="10" height="10" as="geometry" />
        </mxCell>
        <mxCell id="TnC0XK69cuh4wK1BemMV-57" value="" style="endArrow=none;html=1;fontColor=#FFFFFF;entryX=0;entryY=0.5;entryDx=0;entryDy=0;" edge="1" parent="1" target="TnC0XK69cuh4wK1BemMV-55">
          <mxGeometry width="50" height="50" relative="1" as="geometry">
            <mxPoint x="550" y="615" as="sourcePoint" />
            <mxPoint x="440" y="530" as="targetPoint" />
          </mxGeometry>
        </mxCell>
        <mxCell id="TnC0XK69cuh4wK1BemMV-58" value="" style="ellipse;whiteSpace=wrap;html=1;aspect=fixed;fontColor=#FFFFFF;fillColor=#FFFFFF;" vertex="1" parent="1">
          <mxGeometry x="595" y="640" width="10" height="10" as="geometry" />
        </mxCell>
        <mxCell id="TnC0XK69cuh4wK1BemMV-62" value="" style="endArrow=none;html=1;fontColor=#FFFFFF;entryX=0;entryY=0.5;entryDx=0;entryDy=0;" edge="1" parent="1" target="TnC0XK69cuh4wK1BemMV-58">
          <mxGeometry width="50" height="50" relative="1" as="geometry">
            <mxPoint x="550" y="645" as="sourcePoint" />
            <mxPoint x="440" y="640" as="targetPoint" />
          </mxGeometry>
        </mxCell>
        <mxCell id="TnC0XK69cuh4wK1BemMV-63" value="Text" style="text;html=1;strokeColor=none;fillColor=none;align=center;verticalAlign=middle;whiteSpace=wrap;rounded=0;fontColor=#FFFFFF;" vertex="1" parent="1">
          <mxGeometry x="390" y="510" width="40" height="20" as="geometry" />
        </mxCell>
        <mxCell id="TnC0XK69cuh4wK1BemMV-66" value="Nombre" style="text;html=1;strokeColor=none;fillColor=none;align=center;verticalAlign=middle;whiteSpace=wrap;rounded=0;" vertex="1" parent="1">
          <mxGeometry x="600" y="605" width="60" height="20" as="geometry" />
        </mxCell>
        <mxCell id="TnC0XK69cuh4wK1BemMV-67" value="Cantidad de articulos&amp;nbsp;" style="text;html=1;align=center;verticalAlign=middle;resizable=0;points=[];autosize=1;strokeColor=none;fontColor=#000000;rotation=0;" vertex="1" parent="1">
          <mxGeometry x="600" y="635" width="130" height="20" as="geometry" />
        </mxCell>
        <mxCell id="TnC0XK69cuh4wK1BemMV-69" value="Mi Carrito" style="rounded=0;whiteSpace=wrap;html=1;fontColor=#000000;fillColor=#FFFFFF;" vertex="1" parent="1">
          <mxGeometry x="270" y="-100" width="120" height="60" as="geometry" />
        </mxCell>
        <mxCell id="TnC0XK69cuh4wK1BemMV-70" value="" style="endArrow=none;html=1;fontColor=#000000;exitX=0.5;exitY=0;exitDx=0;exitDy=0;entryX=0;entryY=1;entryDx=0;entryDy=0;" edge="1" parent="1" source="TnC0XK69cuh4wK1BemMV-1" target="TnC0XK69cuh4wK1BemMV-72">
          <mxGeometry width="50" height="50" relative="1" as="geometry">
            <mxPoint x="390" y="60" as="sourcePoint" />
            <mxPoint x="440" y="10" as="targetPoint" />
          </mxGeometry>
        </mxCell>
        <mxCell id="TnC0XK69cuh4wK1BemMV-71" value="" style="endArrow=none;html=1;fontColor=#000000;entryX=1;entryY=1;entryDx=0;entryDy=0;exitX=0.5;exitY=0;exitDx=0;exitDy=0;" edge="1" parent="1" source="TnC0XK69cuh4wK1BemMV-23" target="TnC0XK69cuh4wK1BemMV-73">
          <mxGeometry width="50" height="50" relative="1" as="geometry">
            <mxPoint x="390" y="60" as="sourcePoint" />
            <mxPoint x="440" y="10" as="targetPoint" />
          </mxGeometry>
        </mxCell>
        <mxCell id="TnC0XK69cuh4wK1BemMV-72" value="Compra" style="rhombus;whiteSpace=wrap;html=1;fontColor=#000000;fillColor=#FFFFFF;" vertex="1" parent="1">
          <mxGeometry x="165" width="80" height="80" as="geometry" />
        </mxCell>
        <mxCell id="TnC0XK69cuh4wK1BemMV-73" value="Añade" style="rhombus;whiteSpace=wrap;html=1;fontColor=#000000;fillColor=#FFFFFF;" vertex="1" parent="1">
          <mxGeometry x="420" width="80" height="80" as="geometry" />
        </mxCell>
        <mxCell id="TnC0XK69cuh4wK1BemMV-74" value="" style="endArrow=classic;html=1;fontColor=#000000;entryX=1;entryY=1;entryDx=0;entryDy=0;exitX=0;exitY=0;exitDx=0;exitDy=0;" edge="1" parent="1" source="TnC0XK69cuh4wK1BemMV-73" target="TnC0XK69cuh4wK1BemMV-69">
          <mxGeometry width="50" height="50" relative="1" as="geometry">
            <mxPoint x="390" y="80" as="sourcePoint" />
            <mxPoint x="440" y="30" as="targetPoint" />
          </mxGeometry>
        </mxCell>
        <mxCell id="TnC0XK69cuh4wK1BemMV-76" value="" style="endArrow=classic;html=1;fontColor=#000000;entryX=0.75;entryY=1;entryDx=0;entryDy=0;exitX=1;exitY=0.5;exitDx=0;exitDy=0;" edge="1" parent="1" source="TnC0XK69cuh4wK1BemMV-31" target="TnC0XK69cuh4wK1BemMV-34">
          <mxGeometry width="50" height="50" relative="1" as="geometry">
            <mxPoint x="390" y="260" as="sourcePoint" />
            <mxPoint x="440" y="210" as="targetPoint" />
          </mxGeometry>
        </mxCell>
        <mxCell id="TnC0XK69cuh4wK1BemMV-77" value="" style="endArrow=classic;html=1;fontColor=#000000;entryX=0;entryY=1;entryDx=0;entryDy=0;exitX=1;exitY=0;exitDx=0;exitDy=0;" edge="1" parent="1" source="TnC0XK69cuh4wK1BemMV-72" target="TnC0XK69cuh4wK1BemMV-69">
          <mxGeometry width="50" height="50" relative="1" as="geometry">
            <mxPoint x="220" y="20" as="sourcePoint" />
            <mxPoint x="440" y="50" as="targetPoint" />
          </mxGeometry>
        </mxCell>
        <mxCell id="TnC0XK69cuh4wK1BemMV-78" value="1" style="text;html=1;strokeColor=none;fillColor=none;align=center;verticalAlign=middle;whiteSpace=wrap;rounded=0;fontColor=#000000;" vertex="1" parent="1">
          <mxGeometry x="240" y="-60" width="40" height="20" as="geometry" />
        </mxCell>
        <mxCell id="TnC0XK69cuh4wK1BemMV-79" value="1" style="text;html=1;strokeColor=none;fillColor=none;align=center;verticalAlign=middle;whiteSpace=wrap;rounded=0;fontColor=#000000;" vertex="1" parent="1">
          <mxGeometry x="95" y="120" width="40" height="20" as="geometry" />
        </mxCell>
        <mxCell id="TnC0XK69cuh4wK1BemMV-81" value="N" style="text;html=1;strokeColor=none;fillColor=none;align=center;verticalAlign=middle;whiteSpace=wrap;rounded=0;fontColor=#000000;" vertex="1" parent="1">
          <mxGeometry x="540" y="120" width="40" height="20" as="geometry" />
        </mxCell>
        <mxCell id="TnC0XK69cuh4wK1BemMV-82" value="1" style="text;html=1;strokeColor=none;fillColor=none;align=center;verticalAlign=middle;whiteSpace=wrap;rounded=0;fontColor=#000000;" vertex="1" parent="1">
          <mxGeometry x="380" y="-60" width="40" height="20" as="geometry" />
        </mxCell>
        <mxCell id="TnC0XK69cuh4wK1BemMV-84" value="" style="endArrow=classic;startArrow=classic;html=1;fontColor=#000000;entryX=0.25;entryY=0;entryDx=0;entryDy=0;exitX=0.25;exitY=1;exitDx=0;exitDy=0;" edge="1" parent="1" source="TnC0XK69cuh4wK1BemMV-41" target="TnC0XK69cuh4wK1BemMV-40">
          <mxGeometry width="50" height="50" relative="1" as="geometry">
            <mxPoint x="390" y="330" as="sourcePoint" />
            <mxPoint x="440" y="280" as="targetPoint" />
          </mxGeometry>
        </mxCell>
        <mxCell id="TnC0XK69cuh4wK1BemMV-85" value="Pertenece" style="rhombus;whiteSpace=wrap;html=1;fontColor=#000000;fillColor=#FFFFFF;" vertex="1" parent="1">
          <mxGeometry x="510" y="290" width="80" height="80" as="geometry" />
        </mxCell>
        <mxCell id="TnC0XK69cuh4wK1BemMV-87" value="" style="endArrow=none;html=1;fontColor=#000000;exitX=1;exitY=0;exitDx=0;exitDy=0;" edge="1" parent="1" source="TnC0XK69cuh4wK1BemMV-23">
          <mxGeometry width="50" height="50" relative="1" as="geometry">
            <mxPoint x="390" y="160" as="sourcePoint" />
            <mxPoint x="610" as="targetPoint" />
          </mxGeometry>
        </mxCell>
        <mxCell id="TnC0XK69cuh4wK1BemMV-88" value="" style="ellipse;whiteSpace=wrap;html=1;aspect=fixed;fontColor=#000000;fillColor=#000000;" vertex="1" parent="1">
          <mxGeometry x="660" y="-10" width="30" height="30" as="geometry" />
        </mxCell>
        <mxCell id="TnC0XK69cuh4wK1BemMV-89" value="" style="endArrow=none;html=1;fontColor=#000000;entryX=0;entryY=0.5;entryDx=0;entryDy=0;" edge="1" parent="1" target="TnC0XK69cuh4wK1BemMV-88">
          <mxGeometry width="50" height="50" relative="1" as="geometry">
            <mxPoint x="610" y="5" as="sourcePoint" />
            <mxPoint x="440" y="110" as="targetPoint" />
          </mxGeometry>
        </mxCell>
        <mxCell id="TnC0XK69cuh4wK1BemMV-90" value="" style="ellipse;whiteSpace=wrap;html=1;aspect=fixed;fontColor=#000000;fillColor=#FFFFFF;" vertex="1" parent="1">
          <mxGeometry x="650" y="70" width="10" height="10" as="geometry" />
        </mxCell>
        <mxCell id="TnC0XK69cuh4wK1BemMV-91" value="" style="ellipse;whiteSpace=wrap;html=1;aspect=fixed;fontColor=#000000;fillColor=#FFFFFF;" vertex="1" parent="1">
          <mxGeometry x="650" y="90" width="10" height="10" as="geometry" />
        </mxCell>
        <mxCell id="TnC0XK69cuh4wK1BemMV-92" value="" style="ellipse;whiteSpace=wrap;html=1;aspect=fixed;fontColor=#000000;fillColor=#FFFFFF;" vertex="1" parent="1">
          <mxGeometry x="650" y="110" width="10" height="10" as="geometry" />
        </mxCell>
        <mxCell id="TnC0XK69cuh4wK1BemMV-93" value="" style="endArrow=none;html=1;fontColor=#000000;entryX=0;entryY=0.5;entryDx=0;entryDy=0;" edge="1" parent="1" target="TnC0XK69cuh4wK1BemMV-90">
          <mxGeometry width="50" height="50" relative="1" as="geometry">
            <mxPoint x="610" y="75" as="sourcePoint" />
            <mxPoint x="440" y="30" as="targetPoint" />
          </mxGeometry>
        </mxCell>
        <mxCell id="TnC0XK69cuh4wK1BemMV-94" value="" style="endArrow=none;html=1;fontColor=#000000;entryX=0;entryY=0.5;entryDx=0;entryDy=0;" edge="1" parent="1" target="TnC0XK69cuh4wK1BemMV-91">
          <mxGeometry width="50" height="50" relative="1" as="geometry">
            <mxPoint x="610" y="95" as="sourcePoint" />
            <mxPoint x="440" y="30" as="targetPoint" />
          </mxGeometry>
        </mxCell>
        <mxCell id="TnC0XK69cuh4wK1BemMV-95" value="" style="endArrow=none;html=1;fontColor=#000000;entryX=0;entryY=0.5;entryDx=0;entryDy=0;" edge="1" parent="1" target="TnC0XK69cuh4wK1BemMV-92">
          <mxGeometry width="50" height="50" relative="1" as="geometry">
            <mxPoint x="610" y="115" as="sourcePoint" />
            <mxPoint x="440" y="30" as="targetPoint" />
          </mxGeometry>
        </mxCell>
        <mxCell id="TnC0XK69cuh4wK1BemMV-96" value="Nombre" style="text;html=1;strokeColor=none;fillColor=none;align=center;verticalAlign=middle;whiteSpace=wrap;rounded=0;fontColor=#000000;" vertex="1" parent="1">
          <mxGeometry x="670" y="45" width="40" height="20" as="geometry" />
        </mxCell>
        <mxCell id="TnC0XK69cuh4wK1BemMV-97" value="Condicion" style="text;html=1;strokeColor=none;fillColor=none;align=center;verticalAlign=middle;whiteSpace=wrap;rounded=0;fontColor=#000000;" vertex="1" parent="1">
          <mxGeometry x="680" y="105" width="40" height="20" as="geometry" />
        </mxCell>
        <mxCell id="TnC0XK69cuh4wK1BemMV-98" value="Descripcion" style="text;html=1;strokeColor=none;fillColor=none;align=center;verticalAlign=middle;whiteSpace=wrap;rounded=0;fontColor=#000000;" vertex="1" parent="1">
          <mxGeometry x="680" y="65" width="40" height="20" as="geometry" />
        </mxCell>
        <mxCell id="TnC0XK69cuh4wK1BemMV-99" value="Costo" style="text;html=1;strokeColor=none;fillColor=none;align=center;verticalAlign=middle;whiteSpace=wrap;rounded=0;fontColor=#000000;" vertex="1" parent="1">
          <mxGeometry x="670" y="85" width="40" height="20" as="geometry" />
        </mxCell>
        <mxCell id="TnC0XK69cuh4wK1BemMV-100" value="" style="ellipse;whiteSpace=wrap;html=1;aspect=fixed;fontColor=#000000;fillColor=#FFFFFF;" vertex="1" parent="1">
          <mxGeometry x="650" y="50" width="10" height="10" as="geometry" />
        </mxCell>
        <mxCell id="TnC0XK69cuh4wK1BemMV-102" value="" style="endArrow=none;html=1;fontColor=#000000;entryX=0;entryY=0.5;entryDx=0;entryDy=0;" edge="1" parent="1" target="TnC0XK69cuh4wK1BemMV-100">
          <mxGeometry width="50" height="50" relative="1" as="geometry">
            <mxPoint x="610" y="55" as="sourcePoint" />
            <mxPoint x="440" y="60" as="targetPoint" />
          </mxGeometry>
        </mxCell>
        <mxCell id="TnC0XK69cuh4wK1BemMV-103" value="" style="endArrow=none;html=1;fontColor=#000000;exitX=0.5;exitY=0;exitDx=0;exitDy=0;" edge="1" parent="1" source="TnC0XK69cuh4wK1BemMV-69">
          <mxGeometry width="50" height="50" relative="1" as="geometry">
            <mxPoint x="390" y="-70" as="sourcePoint" />
            <mxPoint x="330" y="-250" as="targetPoint" />
          </mxGeometry>
        </mxCell>
        <mxCell id="TnC0XK69cuh4wK1BemMV-104" value="" style="ellipse;whiteSpace=wrap;html=1;aspect=fixed;fontColor=#000000;fillColor=#000000;" vertex="1" parent="1">
          <mxGeometry x="400" y="-260" width="30" height="30" as="geometry" />
        </mxCell>
        <mxCell id="TnC0XK69cuh4wK1BemMV-105" value="" style="endArrow=none;html=1;fontColor=#000000;entryX=0;entryY=0.5;entryDx=0;entryDy=0;" edge="1" parent="1" target="TnC0XK69cuh4wK1BemMV-104">
          <mxGeometry width="50" height="50" relative="1" as="geometry">
            <mxPoint x="330" y="-245" as="sourcePoint" />
            <mxPoint x="440" y="-120" as="targetPoint" />
          </mxGeometry>
        </mxCell>
        <mxCell id="TnC0XK69cuh4wK1BemMV-106" value="Detalle de productos agregados" style="text;html=1;strokeColor=none;fillColor=none;align=center;verticalAlign=middle;whiteSpace=wrap;rounded=0;fontColor=#000000;" vertex="1" parent="1">
          <mxGeometry x="380" y="-220" width="140" height="20" as="geometry" />
        </mxCell>
        <mxCell id="TnC0XK69cuh4wK1BemMV-107" value="Importe total a pagar" style="text;html=1;strokeColor=none;fillColor=none;align=center;verticalAlign=middle;whiteSpace=wrap;rounded=0;fontColor=#000000;" vertex="1" parent="1">
          <mxGeometry x="390" y="-185" width="120" height="20" as="geometry" />
        </mxCell>
        <mxCell id="TnC0XK69cuh4wK1BemMV-108" value="Forma de pago" style="text;html=1;strokeColor=none;fillColor=none;align=center;verticalAlign=middle;whiteSpace=wrap;rounded=0;fontColor=#000000;" vertex="1" parent="1">
          <mxGeometry x="370" y="-155" width="130" height="20" as="geometry" />
        </mxCell>
        <mxCell id="TnC0XK69cuh4wK1BemMV-110" value="" style="ellipse;whiteSpace=wrap;html=1;aspect=fixed;fontColor=#000000;fillColor=#FFFFFF;" vertex="1" parent="1">
          <mxGeometry x="380" y="-210" width="10" height="10" as="geometry" />
        </mxCell>
        <mxCell id="TnC0XK69cuh4wK1BemMV-111" value="" style="ellipse;whiteSpace=wrap;html=1;aspect=fixed;fontColor=#000000;fillColor=#FFFFFF;" vertex="1" parent="1">
          <mxGeometry x="380" y="-180" width="10" height="10" as="geometry" />
        </mxCell>
        <mxCell id="TnC0XK69cuh4wK1BemMV-112" value="" style="ellipse;whiteSpace=wrap;html=1;aspect=fixed;fontColor=#000000;fillColor=#FFFFFF;" vertex="1" parent="1">
          <mxGeometry x="380" y="-150" width="10" height="10" as="geometry" />
        </mxCell>
        <mxCell id="TnC0XK69cuh4wK1BemMV-113" value="" style="endArrow=none;html=1;fontColor=#000000;entryX=0;entryY=0.5;entryDx=0;entryDy=0;" edge="1" parent="1" target="TnC0XK69cuh4wK1BemMV-110">
          <mxGeometry width="50" height="50" relative="1" as="geometry">
            <mxPoint x="330" y="-205" as="sourcePoint" />
            <mxPoint x="440" y="-150" as="targetPoint" />
          </mxGeometry>
        </mxCell>
        <mxCell id="TnC0XK69cuh4wK1BemMV-114" value="" style="endArrow=none;html=1;fontColor=#000000;entryX=0;entryY=0.5;entryDx=0;entryDy=0;" edge="1" parent="1" target="TnC0XK69cuh4wK1BemMV-111">
          <mxGeometry width="50" height="50" relative="1" as="geometry">
            <mxPoint x="330" y="-175" as="sourcePoint" />
            <mxPoint x="440" y="-150" as="targetPoint" />
          </mxGeometry>
        </mxCell>
        <mxCell id="TnC0XK69cuh4wK1BemMV-115" value="" style="endArrow=none;html=1;fontColor=#000000;entryX=0;entryY=0.5;entryDx=0;entryDy=0;" edge="1" parent="1" target="TnC0XK69cuh4wK1BemMV-112">
          <mxGeometry width="50" height="50" relative="1" as="geometry">
            <mxPoint x="330" y="-145" as="sourcePoint" />
            <mxPoint x="440" y="-150" as="targetPoint" />
          </mxGeometry>
        </mxCell>
        <mxCell id="TnC0XK69cuh4wK1BemMV-116" value="&lt;font color=&quot;#ffffff&quot;&gt;Id&lt;/font&gt;" style="text;html=1;strokeColor=none;fillColor=none;align=center;verticalAlign=middle;whiteSpace=wrap;rounded=0;fontColor=#000000;" vertex="1" parent="1">
          <mxGeometry x="655" y="-5" width="40" height="20" as="geometry" />
        </mxCell>
        <mxCell id="TnC0XK69cuh4wK1BemMV-117" value="Id" style="text;html=1;strokeColor=none;fillColor=none;align=center;verticalAlign=middle;whiteSpace=wrap;rounded=0;fontColor=#FFFFFF;" vertex="1" parent="1">
          <mxGeometry x="395" y="-255" width="40" height="20" as="geometry" />
        </mxCell>
      </root>
    </mxGraphModel>
  </diagram>
</mxfile>
